<svg xmlns="http://www.w3.org/2000/svg" id="Layer_1" data-name="Layer 1" viewBox="0 0 1188.8 764.8"><defs><style>.cls-1{fill:#2a1710}.cls-2{fill:#cf8153}.cls-3{fill:#aa6543}.cls-4{fill:#8c8a94}.cls-5{fill:#4a494a}.cls-6{fill:#fff}.cls-7{fill:#e6d8cf}.cls-8{fill:#e8cfb0}.cls-9{fill:#c69b6f}</style></defs><path d="M392.1 423.56a11 11 0 0 1-3.25-2.22c-2.49-2.48-24.58-24.59-32.38-38.84-11.3-20.64-.18-54.18 5.13-67.64 10.7-27.15 27.53-51 45-63.79 10.48-7.66 10.57-11.55 10.56-11.59-.07-.65-2.12-3-6.79-5.12-.92-.4-1.54-.61-1.54-.61-.36-.12-.7-.25-1-.4a10.82 10.82 0 0 1-3.63-17.15c9.42-10.51 26.46-12.84 42.41-5.78 10.62 4.7 18.4 12.61 21.91 22.27 4.8 13.18 22.68 21.22 22.86 21.3a11 11 0 0 1 6 6.75 10.85 10.85 0 0 1-1.1 8.94l-.62 1-16.55 26.38-1 1.6a10.85 10.85 0 0 1-18.52-.26c-2.74-4.59-8.8-12.29-13.09-14.19-.23-.1-.4-.15-.51-.19-6.61.55-29.86 17.53-38 46.92-7.84 28.5 11.11 47.62 11.92 48.42a10.79 10.79 0 0 1 1.74 13.35l-15.88 26.5a10.88 10.88 0 0 1-13.71 4.35Z" class="cls-1"/><path d="m487.06 264-.62 1-16.52 26.3-1 1.57s-10.69-18.08-21.58-19.63-40 19.38-49.77 54.82 14.81 59.07 14.81 59.07l-9.16 15.28-6.73 11.22s-23.23-23.07-30.5-36.34C352.7 353 378.81 284.85 413 259.83s-.77-36.39-.77-36.39a17.17 17.17 0 0 1 5.7-4.13c13.08-6 34.73 1.62 40.35 17.09 6.58 18.03 28.78 27.6 28.78 27.6Z" class="cls-2"/><path d="m403.22 402.41-6.73 11.22s-23.23-23.07-30.5-36.34C352.7 353 378.81 284.85 413 259.83s-.77-36.39-.77-36.39l.05-.05a9.26 9.26 0 0 1 10.94-1.89c3.95 1.93 8.62 5 9.9 9 2.32 7.26 2.79 15.58-9.45 28.06s-43.13 112.31-43.32 113.41 10.8 23.09 22.84 30.48Z" class="cls-3"/><path d="M394.29 414.22a5.11 5.11 0 0 1-1.68-1.21c-4.14-4.48-17-20-8.19-31.74 5.18-6.92 14.24-8.21 24.85-3.51a42.36 42.36 0 0 1 5.29 2.8 5.08 5.08 0 0 1 1.6 7l-15.45 24.62a5 5 0 0 1-1.55 1.64 5.16 5.16 0 0 1-4.87.4Z" class="cls-1"/><path d="M411.84 384.86 396.68 409l-.33.52c-3.2-3.46-14.32-16.59-7.85-25.24 5-6.75 14-4.11 19.29-1.63a35.79 35.79 0 0 1 4.05 2.21Z" class="cls-4"/><path d="M411.84 384.86 396.68 409c-4-4.6-12.79-16.23-6.87-24.13 4.66-6.22 12.6-4.46 18-2.22a35.79 35.79 0 0 1 4.03 2.21Z" class="cls-5"/><path d="M395 396.46a6.94 6.94 0 1 1 6.82-2.64 6.95 6.95 0 0 1-6.82 2.64Z" class="cls-1"/><circle cx="396.26" cy="389.64" r="4.39" class="cls-4"/><circle cx="398.1" cy="390.45" r="4.39" class="cls-1"/><path d="M461.27 293.41a5.5 5.5 0 0 1-1.79-1.28c-4.42-4.78-18.09-21.34-8.73-33.85 5.51-7.39 15.17-8.75 26.49-3.74a44.12 44.12 0 0 1 5.64 3 5.42 5.42 0 0 1 1.7 7.47l-16.46 26.25a5.63 5.63 0 0 1-1.65 1.75 5.54 5.54 0 0 1-5.2.4Z" class="cls-1"/><path d="m480 262.11-16.17 25.78-.35.55c-3.41-3.69-15.27-17.69-8.37-26.91 5.38-7.2 14.91-4.38 20.58-1.74a36.83 36.83 0 0 1 4.31 2.32Z" class="cls-4"/><path d="m480 262.11-16.17 25.78c-4.27-4.91-13.63-17.31-7.32-25.74 5-6.63 13.44-4.75 19.18-2.36a36.83 36.83 0 0 1 4.31 2.32Z" class="cls-5"/><path d="M462 274.47a7.4 7.4 0 1 1 7.27-2.81 7.33 7.33 0 0 1-7.27 2.81Z" class="cls-1"/><circle cx="463.37" cy="267.2" r="4.68" class="cls-4"/><circle cx="465.33" cy="268.07" r="4.68" class="cls-1"/><path d="M442 472.24a224.45 224.45 0 0 1-32.17-16.93c-6-3.9-16.12-10.45-18.65-21.43-1.05-4.53-.54-10.49 5.38-24.8 3.37-8.09 8.31-18.47 14.69-30.84 11.91-23.07 28.89-53.3 50.46-89.85 5.3-9 10.82-18.23 17.39-29.15 12-19.9 20.45-33.59 20.54-33.73a10.84 10.84 0 0 1 13.62-4.21l119.43 53.23a10.86 10.86 0 0 1 5.93 13.18c-.05.17-5.51 17.47-13.52 41.76-3.23 9.78-6.55 19.7-9.86 29.49-14.15 41.71-26.31 75-36.12 98.92-5 12.05-9.35 21.81-13.07 29-5.51 10.55-9.63 15.85-14.23 18.31-9.64 5.18-20.86 2.33-27.56.63a172.49 172.49 0 0 1-27.26-9.9c-2.72-1.21-5.42-2.44-8.12-3.67s-5.25-2.38-7.87-3.55l-.32-.14c-6.11-2.69-12.56-5.35-18.79-7.92-6.56-2.64-13.31-5.46-19.9-8.4Z" class="cls-1"/><path d="M556.37 481.87c-3.9 7.49-7.22 12.41-9.71 13.74-5.74 3.09-13.6 1.24-19.55-.27h-.22c-14.58-3.69-28.14-10.61-41.84-16.66-23-10.17-48.18-18.65-69.34-32.42-5.27-3.41-12.48-8.17-14-14.76-.68-2.93 1.18-9.38 4.84-18.22 3.42-8.22 8.38-18.52 14.31-30 13.93-27 33.2-60.59 50.16-89.31 6.21-10.53 12.12-20.41 17.34-29.08 12.09-20.06 20.47-33.61 20.47-33.61l24.82 11.06 94.58 42.16s-5.39 17.13-13.48 41.63c-3 9-6.28 18.93-9.83 29.4-11.06 32.61-24.36 70.2-35.88 98.29-4.6 11.12-8.91 20.8-12.67 28.05Z" class="cls-2"/><path d="M527.11 495.34h-.22c-14.58-3.69-28.14-10.61-41.84-16.66-23-10.17-48.18-18.65-69.34-32.42-5.27-3.41-12.48-8.17-14-14.76-.68-2.93 1.18-9.38 4.84-18.22 3.42-8.22 8.38-18.52 14.31-30 13.93-27 33.2-60.59 50.16-89.31 6.21-10.53 12.12-20.41 17.34-29.08 12.09-20.06 20.47-33.61 20.47-33.61l24.82 11.06c-13.39 23.66-85.43 161.26-6.54 253Z" class="cls-3"/><path d="M536 507.87a53.11 53.11 0 0 1-5.54-.7l88.09-236.74 5.08 1.89ZM507.36 500.24q-2.44-.94-5-2.05l99.45-235.51 5 2.11ZM585.5 255.72 479.64 487.57c-1.66-.83-3.28-1.67-4.82-2.47l105.75-231.64ZM399.44 447.45a53.85 53.85 0 0 0 4.19 3.61L526 229.07l-4.81-2.48ZM424.21 463.44q2.34 1.19 4.89 2.35L543 236.25l-5-2.25ZM559 243.61 452.23 475.44c1.74.67 3.45 1.31 5.08 1.91L564 245.75Z" class="cls-1"/><path d="M572.51 353.5c-40-17.67-91.42-42.61-106.25-49.84a10.85 10.85 0 0 1-4.59-15.27c5.3-9 10.82-18.23 17.39-29.15a10.84 10.84 0 0 1 13.69-4.33 10.46 10.46 0 0 1 1.64.9c18.31 12.24 45.86 26.62 79.67 41.58 20.89 9.24 38.16 16.06 44.61 18.56.17.06.32.13.48.2a10.85 10.85 0 0 1 5.91 13.32c-3.23 9.78-6.55 19.7-9.86 29.49a10.86 10.86 0 0 1-14.3 6.6c-7.61-3.04-17.17-7.09-28.39-12.06Z" class="cls-1"/><path d="M609.92 340.61a15.23 15.23 0 0 1-20.19 8.56c-33-14.12-79.2-36.16-103.81-48.05a15.18 15.18 0 0 1-6.75-20.92 6.12 6.12 0 0 1 .31-.56l.9-1.49a15.19 15.19 0 0 1 20.82-5.25c33.32 19.82 77.43 38.63 100.32 47.91a15.2 15.2 0 0 1 8.71 18.9 2.64 2.64 0 0 0-.1.3q-.13.3-.21.6Z" class="cls-4"/><path d="M609.92 340.61a15.23 15.23 0 0 1-20.19 8.56c-33-14.12-79.2-36.16-103.81-48.05a15.18 15.18 0 0 1-6.75-20.92c14.96 8.43 80.25 44.49 130.75 60.41Z" class="cls-5"/><path d="M507.5 310.55a36.55 36.55 0 0 1-3.53-1.79A31.62 31.62 0 0 1 488.25 288a43.12 43.12 0 0 1 .74-20 10.75 10.75 0 0 1-2.5-.76l-.22-.1c-16.06-7.53-26.47-20.34-27.84-34.29a28.83 28.83 0 0 1 11.94-26.56c8.14-6 18.76-7.34 30.46-4 1.56-9.07 5.66-18.49 14.39-24.35 8.43-5.66 18.62-6.32 28.7-1.86a44.58 44.58 0 0 1 8.22 4.8 25.37 25.37 0 0 1 10.92-2.32 26.38 26.38 0 0 1 23.07 13A60.18 60.18 0 0 1 630 193c11.86 5.25 20.17 13.94 23.4 24.49a36.11 36.11 0 0 1 .1 21.72 34.08 34.08 0 0 1 3.83 22.47 26.11 26.11 0 0 1-5.36 12.1c5.56 6.77 9.2 15.72 5.14 25.46-6.19 14.84-19 17.91-25.53 17.38a10.81 10.81 0 0 1-3.52-.9l-.51-.24a27.3 27.3 0 0 1-6 .84A36.23 36.23 0 0 1 605.7 313a51.54 51.54 0 0 1-13-8.42 32 32 0 0 1-14.58-1.17 36.7 36.7 0 0 1-4.09-1.52 29.79 29.79 0 0 1-10.6-7.67c-13.6 12.78-35.02 25.59-55.93 16.33Z" class="cls-1"/><path d="M647.07 295.06a17.17 17.17 0 0 1-7.91 9.12 13.57 13.57 0 0 1-6.73 1.61c4.82-6 6.8-14.9 6.8-14.9s-5.3 14.17-18 14.58-23.06-10.7-23.06-10.7c6.36-4 9.79-11.6 10-12.15v.05c-.83 1.2-11.07 15.27-26.74 10.41-16.35-5.05-14-20-14-20-3.93 6.87-33.33 40.44-58 26.24s-.55-49.05-.55-49.05c5.52-1.45 13.27-7.89 13.74-8.28H522.45c-1.51.84-12.69 6.7-22.07 3-9.16-3.65-9.43-13-9.41-14.72a1.23 1.23 0 0 1 0-.24c-4.44 11.39 4.68 19.28 4.68 19.28-.77 3.31-4.33 7.52-4.7 8C468 246.63 463 225.25 476.8 215.06s34.63 3.9 34.63 3.9 0-.2-.08-.56a2.91 2.91 0 0 1 0-.31c0-.12 0-.24-.05-.38-.57-4.87-1.78-22.82 10-30.74 13.49-9.06 28 5.57 28.46 6.05-2.3 4.56-2.57 12.24-2.59 13.15.17-1.29 2.4-16.75 15.9-16.76 14.09 0 16.75 15.13 16.75 15.13a51.93 51.93 0 0 0-4.07 5.62c22.8-20.27 60.71-10.91 67.27 10.48s-14.86 33.58-14.86 33.58c9.7-.26 15.46-10.37 15.46-10.37s4.58 6.18 3 16.06S635 273.19 635 273.19s16.87 10.35 12.07 21.87Z" class="cls-6"/><path d="M490.88 257.34C468 246.63 463 225.25 476.8 215.06s34.63 3.9 34.63 3.9-22.76-9.82-33.62 4.66 13.07 33.72 13.07 33.72Z" class="cls-7"/><path d="M500.33 245.05c-9.16-3.65-9.43-13-9.41-14.72a1.23 1.23 0 0 1 0-.24A19 19 0 0 0 504.41 243c9.92 2.5 16.79-.32 18-.87-1.52.8-12.7 6.66-22.08 2.92ZM511.26 217.71c-.57-4.87-1.78-22.82 10-30.74 13.49-9.06 28 5.57 28.46 6.05s-16.29-10.37-28.71.6a28.6 28.6 0 0 0-9.75 24.09ZM567.43 273.11c-3.93 6.87-33.33 40.44-58 26.24s-.55-49.05-.55-49.05-11.16 31.36 10 41.48 48.55-18.67 48.55-18.67Z" class="cls-7"/><path d="M608.12 282.67c-.83 1.2-11.07 15.27-26.74 10.41-16.35-5.05-14-20-14-20s9.29 14 22.54 14.87c12.46.89 17.61-4.59 18.2-5.28Z" class="cls-7"/><path d="M639.16 304.18a13.57 13.57 0 0 1-6.73 1.61c4.82-6 6.8-14.9 6.8-14.9s-5.3 14.17-18 14.58-23.06-10.7-23.06-10.7c6.36-4 9.79-11.6 10-12.15s-.37 17.13 14.3 15.72 16-18.25 16-18.25 6.4 6.79 5.12 15.23a16.92 16.92 0 0 1-4.43 8.86Z" class="cls-7"/><path d="M528.57 481.63c-43.43-19.22-98-45-126.68-58.6a10.85 10.85 0 0 1-5.36-14c3.36-8.08 8.3-18.46 14.68-30.83a10.87 10.87 0 0 1 14-4.95 11.36 11.36 0 0 1 1.2.62c23.67 14.23 57.72 31.28 98.49 49.32 19.84 8.78 37.16 16 48.19 20.47l.3.13a10.85 10.85 0 0 1 5.65 14.05c-5 12.05-9.35 21.81-13.07 29a10.86 10.86 0 0 1-13.88 5c-6.91-2.93-14.84-6.37-23.52-10.21Z" class="cls-1"/><path d="M561.44 471.4a11.93 11.93 0 0 1-15.59 6l-5.93-2.58c-8.34-3.66-17.17-7.6-26.2-11.67-.94-.43-1.88-.84-2.83-1.28l-4.53-2.05-1.93-.88-4.88-2.22-3.64-1.72c-4-1.82-8-3.64-11.9-5.46l-2-.9c-2.74-1.27-5.44-2.53-8.13-3.76l-5.5-2.56c-7.68-3.57-15.12-7-22.12-10.32-1.74-.83-3.48-1.64-5.17-2.43l-1.69-.79-9.64-4.54-3-1.42-1.47-.7-1.45-.68c-1.43-.68-2.82-1.34-4.16-2l-2.62-1.25a1 1 0 0 1-.2-.11 2.53 2.53 0 0 1-.33-.16 11.93 11.93 0 0 1-5.31-15.27v-.05c.56-1.19 1.15-2.41 1.74-3.66.23-.48.47-1 .7-1.44.47-1 .93-1.94 1.43-2.92a11.92 11.92 0 0 1 16.59-5.09C473.3 413.05 528 436.74 558 449.19a11.91 11.91 0 0 1 6.35 15.75v.11q-1.53 3.33-2.91 6.35Z" class="cls-4"/><path d="M561.44 471.4a11.93 11.93 0 0 1-15.59 6l-5.93-2.58c-8.34-3.66-17.17-7.6-26.2-11.67-.94-.43-1.88-.84-2.83-1.28l-4.53-2.05-1.93-.88-4.88-2.22-3.64-1.72c-4-1.82-8-3.64-11.9-5.46l-2-.9c-2.74-1.27-5.44-2.53-8.13-3.76l-5.5-2.56c-7.68-3.57-15.12-7-22.12-10.32-1.74-.83-3.48-1.64-5.17-2.43l-1.69-.79-9.64-4.54-3-1.42-1.47-.7-1.45-.68c-1.43-.68-2.82-1.34-4.16-2l-2.82-1.36a2.53 2.53 0 0 1-.33-.16 11.93 11.93 0 0 1-5.31-15.27v-.05c.56-1.19 1.15-2.41 1.74-3.66.23-.48.47-1 .7-1.44 18.65 9.08 118.85 57.63 150.57 67.51q-1.41 3.37-2.79 6.39Z" class="cls-5"/><rect width="105.81" height="79.85" x="217.22" y="233.94" class="cls-1" rx="17.47" transform="rotate(113.87 270.13 273.863)"/><path d="m308.53 258.92-23.64 53.42a12.85 12.85 0 0 1-16.95 6.55l-29.67-13.13a12.85 12.85 0 0 1-6.54-16.95l23.64-53.42a12.83 12.83 0 0 1 16.93-6.55L302 242a12.78 12.78 0 0 1 6.52 6.49c.2.43.36.89.52 1.34a12.87 12.87 0 0 1-.51 9.09Z" class="cls-8"/><path d="m299.64 279-14.75 33.33a12.85 12.85 0 0 1-16.95 6.55l-29.67-13.13a12.85 12.85 0 0 1-6.54-16.95l14.55-32.87c-4.6 12.36-7.94 24.87-4.88 29.42 6.79 10.13 38 18.62 38 18.62l29.05-55.52 8.05-15.37c-2.34 4.77-5 10.49-7.53 16.71a173.27 173.27 0 0 0-9.33 29.21Z" class="cls-9"/><path d="M356.59 376.3c-6-2.65-12.42-5.64-19.24-8.82-7.1-3.3-14.45-6.72-21.53-9.85-4.44-2-8.33-3.62-11.9-5.07q-2.64-1.06-5-2.1c-12.5-5.53-20.68-11.14-25-17.15-5.35-7.43-3.58-13.61-2.74-15.64l33.12-79.53a10.36 10.36 0 0 1 11.26-6.62c1.37.07 16 .37 38.31-14.93 22.11-15.19 21.81-37.31 21.78-38.24a10.81 10.81 0 0 1 13.78-10.83 39.25 39.25 0 0 1 4.86 1.81c17.1 7.57 26.68 21.06 25.64 36.09-1 13.88-10.94 31.4-17.78 41.93 4.74 1.73 9.57 3.71 13.8 5.58 8.26 3.66 20.11 9.46 29.62 16.32 4.53 3.26 18.3 13.19 16.23 26.43A26.57 26.57 0 0 1 447.36 316c.07.4.13.8.19 1.21a23.49 23.49 0 0 1-6.31 19.63 22.6 22.6 0 0 1-10.53 6.24 25.18 25.18 0 0 1-5.73 12c-4.38 5.29-9.24 8.23-14 9.51q-.24.81-.54 1.62c-3.3 8.91-11.9 16.7-20.91 18.93-6.28 1.56-14.29-.59-32.94-8.84Z" class="cls-1"/><path d="M433.42 329.28c-7 7.25-16.92 1.66-18 1 .93.75 9.32 8 1.18 17.85-8.62 10.42-17.17 4.93-17.17 4.93a9.18 9.18 0 0 1 1.45 7.29c-1.24 6.32-7.75 12.68-13.93 14.22-8.66 2.14-48.52-19.77-79-32.1S281.2 321.8 281.2 321.8l19.05-45.76 14.06-33.76s18 2.26 45.7-16.78c27.31-18.77 26.52-46.75 26.5-47.54 3.52 1 23.81 9.22 22.61 26.69s-21.87 45.16-21.87 45.16a40 40 0 0 0-12 .55 37.45 37.45 0 0 0-15.82 7.05 47.25 47.25 0 0 1 24.09-4.14c13 1.48 70 25.15 67.58 40.72S432 308.61 432 308.61c2.48 1.5 8.83 12.99 1.42 20.67Z" class="cls-8"/><path d="M387.28 249.82a40 40 0 0 0-12 .55 126.92 126.92 0 0 0 18.45-35.28 38 38 0 0 0-7.16-37.1c3.52 1 23.81 9.22 22.61 26.69s-21.9 45.14-21.9 45.14ZM387 374.6c-8.66 2.14-48.52-19.77-79-32.1s-26.75-20.67-26.75-20.67l19.05-45.76c-3.93 16.51-4 32.25 5.74 40.27 22.88 18.77 81.5 39.47 94.86 44-1.25 6.36-7.76 12.72-13.9 14.26Z" class="cls-9"/><path d="M813.5 521a9.81 9.81 0 0 0 3-2c2.26-2.24 22.28-22.29 29.35-35.21 10.24-18.71.16-49.11-4.65-61.32-9.7-24.61-24.95-46.23-40.81-57.83-9.5-6.95-9.58-10.48-9.58-10.51.07-.59 1.93-2.76 6.16-4.64.84-.37 1.39-.56 1.4-.56a8.26 8.26 0 0 0 .94-.36 9.82 9.82 0 0 0 3.24-15.57c-8.54-9.53-24-11.63-38.45-5.24-9.62 4.27-16.68 11.44-19.87 20.19-4.34 12-20.55 19.25-20.71 19.32a9.9 9.9 0 0 0-4.47 14.22l.57.91 15 23.92.91 1.45a9.85 9.85 0 0 0 8.47 4.59 10 10 0 0 0 3.84-.84 9.91 9.91 0 0 0 4.49-4c2.48-4.16 8-11.14 11.86-12.86a2.77 2.77 0 0 1 .47-.18c6 .5 27.07 15.9 34.4 42.54 7.1 25.83-10.07 43.17-10.81 43.9a9.76 9.76 0 0 0-1.57 12.1l14.4 24A9.86 9.86 0 0 0 813.5 521Z" class="cls-1"/><path d="m727.41 376.31.57.91 15 23.88.91 1.43s9.69-16.4 19.56-17.8 36.28 17.56 45.12 49.7S795.12 488 795.12 488l8.3 13.86 6.1 10.17s21.06-20.92 27.65-32.95c12.05-22-11.62-83.8-42.64-106.49s.69-33 .69-33a15.41 15.41 0 0 0-5.17-3.75c-11.85-5.42-31.48 1.48-36.57 15.5-5.95 16.34-26.07 24.97-26.07 24.97Z" class="cls-2"/><path d="m803.42 501.84 6.1 10.17s21.06-20.92 27.65-32.95c12.05-22-11.62-83.8-42.64-106.49s.69-33 .69-33v-.05a8.41 8.41 0 0 0-9.92-1.71c-3.58 1.75-7.81 4.51-9 8.12-2.11 6.58-2.53 14.13 8.56 25.44S824 473.21 824.13 474.2s-9.8 20.93-20.71 27.63Z" class="cls-3"/><path d="M811.52 512.54a4.78 4.78 0 0 0 1.52-1.09c3.75-4.06 15.38-18.14 7.42-28.78-4.69-6.28-12.9-7.44-22.53-3.18a38.15 38.15 0 0 0-4.79 2.53 4.61 4.61 0 0 0-1.45 6.35l14 22.32a4.58 4.58 0 0 0 5.83 1.85Z" class="cls-1"/><path d="m795.6 485.92 13.75 21.92.3.48c2.9-3.14 13-15.05 7.12-22.88-4.58-6.13-12.68-3.73-17.5-1.48a33.7 33.7 0 0 0-3.67 1.96Z" class="cls-4"/><path d="m795.6 485.92 13.75 21.92c3.63-4.17 11.59-14.71 6.23-21.88-4.23-5.63-11.43-4-16.31-2a33.7 33.7 0 0 0-3.67 1.96Z" class="cls-5"/><path d="M810.89 496.44a6.29 6.29 0 1 0-6.18-2.39 6.3 6.3 0 0 0 6.18 2.39Z" class="cls-1"/><circle cx="809.73" cy="490.25" r="3.98" class="cls-4"/><circle cx="808.06" cy="490.99" r="3.98" class="cls-1"/><path d="M750.79 403a5 5 0 0 0 1.63-1.16c4-4.33 16.4-19.34 7.91-30.68-5-6.7-13.76-7.94-24-3.4a41.32 41.32 0 0 0-5.11 2.7 4.93 4.93 0 0 0-1.54 6.78l14.93 23.8a4.79 4.79 0 0 0 1.49 1.58 5 5 0 0 0 4.69.38Z" class="cls-1"/><path d="M733.83 374.63 748.49 398l.31.51c3.1-3.35 13.85-16 7.59-24.4-4.88-6.52-13.51-4-18.65-1.57a33.09 33.09 0 0 0-3.91 2.09Z" class="cls-4"/><path d="M733.83 374.63 748.49 398c3.87-4.44 12.35-15.69 6.63-23.32-4.5-6-12.18-4.31-17.38-2.14a33.09 33.09 0 0 0-3.91 2.09Z" class="cls-5"/><path d="M750.13 385.85a6.71 6.71 0 1 0-6.59-2.55 6.65 6.65 0 0 0 6.59 2.55Z" class="cls-1"/><circle cx="748.89" cy="379.25" r="4.24" class="cls-4"/><circle cx="747.11" cy="380.04" r="4.24" class="cls-1"/><path d="M768.3 565.14a203.83 203.83 0 0 0 29.16-15.35c5.46-3.53 14.62-9.47 16.91-19.42 1-4.11.49-9.51-4.88-22.49-3-7.34-7.53-16.74-13.32-28C785.38 459 770 431.6 750.43 398.46c-4.8-8.13-9.81-16.53-15.77-26.43-10.86-18-18.54-30.45-18.62-30.57a9.82 9.82 0 0 0-12.34-3.82L595.42 385.9a9.82 9.82 0 0 0-5.42 11.94c.05.16 5 15.84 12.26 37.87 2.93 8.87 5.93 17.86 8.94 26.73 12.83 37.82 23.85 68 32.75 89.68 4.49 10.93 8.47 19.77 11.84 26.28 5 9.57 8.73 14.37 12.91 16.61 8.74 4.69 18.91 2.11 25 .57a156.93 156.93 0 0 0 24.7-9c2.46-1.09 4.91-2.21 7.36-3.32s4.76-2.17 7.14-3.22l.28-.13c5.54-2.45 11.39-4.85 17-7.18 5.98-2.41 12.11-4.93 18.12-7.59Z" class="cls-1"/><path d="M664.57 573.87c3.54 6.79 6.55 11.25 8.81 12.46 5.2 2.8 12.33 1.12 17.73-.24l.19-.05c13.22-3.35 25.51-9.62 37.93-15.1 20.87-9.22 43.68-16.91 62.87-29.39 4.77-3.1 11.31-7.42 12.69-13.39.61-2.66-1.07-8.5-4.39-16.51-3.1-7.46-7.59-16.79-13-27.22-12.63-24.47-30.1-54.92-45.47-81-5.64-9.54-11-18.49-15.73-26.35-11-18.2-18.55-30.48-18.55-30.48l-22.51 10-85.75 38.23s4.89 15.52 12.22 37.74c2.68 8.12 5.7 17.15 8.92 26.65 10 29.56 22.08 63.64 32.53 89.1 4.19 10.2 8.1 18.98 11.51 25.55Z" class="cls-2"/><path d="m691.11 586.09.19-.05c13.22-3.35 25.51-9.62 37.93-15.1 20.87-9.22 43.68-16.91 62.87-29.39 4.77-3.1 11.31-7.42 12.69-13.39.61-2.66-1.07-8.5-4.39-16.51-3.1-7.46-7.59-16.79-13-27.22-12.63-24.47-30.1-54.92-45.47-81-5.64-9.54-11-18.49-15.73-26.35-11-18.2-18.55-30.48-18.55-30.48l-22.51 10c12.17 21.53 77.49 146.31 5.97 229.49Z" class="cls-3"/><path d="M683.07 597.44a48.12 48.12 0 0 0 5-.63l-79.84-214.63-4.61 1.71ZM709 590.53c1.48-.58 3-1.2 4.56-1.86L623.4 375.16l-4.53 1.91ZM638.16 368.84l96 210.2c1.5-.76 3-1.51 4.37-2.24l-95.88-210ZM806.85 542.66a47.54 47.54 0 0 1-3.81 3.28L692.15 344.68l4.36-2.25ZM784.39 557.17c-1.42.71-2.89 1.41-4.43 2.12l-103.22-208.1 4.47-2.07ZM662.15 357.87 759 568.05l-4.61 1.73-96.76-210Z" class="cls-1"/><path d="M650 457.49c36.21-16 82.88-38.63 96.32-45.18a9.84 9.84 0 0 0 4.16-13.85c-4.8-8.13-9.81-16.53-15.77-26.43a9.84 9.84 0 0 0-13.9-3.1c-16.6 11.09-41.57 24.13-72.22 37.69-18.94 8.38-34.6 14.56-40.45 16.83l-.43.18a9.84 9.84 0 0 0-5.36 12.08c2.93 8.87 5.93 17.86 8.94 26.73a9.85 9.85 0 0 0 13 6c6.82-2.77 15.48-6.44 25.71-10.95Z" class="cls-1"/><path d="M616 445.81a13.81 13.81 0 0 0 18.31 7.75c29.89-12.79 71.8-32.78 94.11-43.55a13.76 13.76 0 0 0 6.12-19 5.05 5.05 0 0 0-.28-.51l-.81-1.35a13.77 13.77 0 0 0-18.88-4.76c-30.21 18-70.19 35-91 43.43a13.79 13.79 0 0 0-7.9 17.14 1.22 1.22 0 0 1 .09.27c.14.21.24.4.24.58Z" class="cls-4"/><path d="M616 445.81a13.81 13.81 0 0 0 18.31 7.75c29.89-12.79 71.8-32.78 94.11-43.55a13.76 13.76 0 0 0 6.12-19c-13.54 7.67-72.73 40.36-118.54 54.8Z" class="cls-5"/><path d="M708.88 418.56a34.39 34.39 0 0 0 3.2-1.63 28.67 28.67 0 0 0 14.25-18.84 39.1 39.1 0 0 0-.67-18.09 9.41 9.41 0 0 0 2.27-.69l.2-.09c14.56-6.82 24-18.44 25.24-31.08a26.13 26.13 0 0 0-10.83-24.08c-7.38-5.44-17-6.66-27.61-3.64-1.42-8.22-5.13-16.76-13-22.07-7.64-5.13-16.88-5.73-26-1.69a40.92 40.92 0 0 0-7.45 4.35 23.08 23.08 0 0 0-9.9-2.1 24 24 0 0 0-20.92 11.78 54.6 54.6 0 0 0-39.82 1.31c-10.75 4.76-18.29 12.64-21.21 22.2a32.65 32.65 0 0 0-.1 19.7 30.87 30.87 0 0 0-3.46 20.37 23.66 23.66 0 0 0 4.85 11c-5 6.13-8.34 14.25-4.66 23.08 5.61 13.45 17.19 16.23 23.14 15.75a9.92 9.92 0 0 0 3.2-.81l.46-.22a24.78 24.78 0 0 0 5.43.77 32.79 32.79 0 0 0 14.36-3 46.68 46.68 0 0 0 11.74-7.64 29.09 29.09 0 0 0 13.22-1.05 35.47 35.47 0 0 0 3.71-1.38 27.18 27.18 0 0 0 9.61-6.95c12.37 11.49 31.79 23.18 50.75 14.74Z" class="cls-1"/><path d="M582.35 404.51a15.58 15.58 0 0 0 7.17 8.27 12.37 12.37 0 0 0 6.1 1.46c-4.37-5.42-6.16-13.51-6.16-13.51s4.79 12.85 16.33 13.22 20.92-9.7 20.92-9.7c-5.77-3.68-8.88-10.52-9.1-11 .75 1.08 10 13.84 24.24 9.44 14.83-4.59 12.65-18.11 12.65-18.11 3.56 6.23 30.21 36.67 52.62 23.79s.5-44.47.5-44.47c-5-1.31-12-7.15-12.45-7.51l.1.05c1.37.76 11.51 6.07 20 2.68 8.3-3.31 8.55-11.81 8.53-13.35a.93.93 0 0 0 0-.21c4 10.33-4.24 17.48-4.24 17.48.7 3 3.92 6.82 4.26 7.22 20.72-9.71 25.32-29.09 12.76-38.33s-31.39 3.53-31.39 3.53 0-.17.07-.5a2.7 2.7 0 0 0 0-.28v-.34c.52-4.42 1.61-20.69-9.08-27.88-12.23-8.21-25.37 5.05-25.81 5.49 2.08 4.13 2.33 11.1 2.34 11.92-.15-1.17-2.17-15.19-14.41-15.19-12.78 0-15.19 13.71-15.19 13.71a47 47 0 0 1 3.7 5.09c-20.68-18.37-55-9.88-61 9.51s13.69 30.51 13.69 30.51c-8.79-.24-14-9.4-14-9.4s-4.15 5.61-2.7 14.56 10.52 12 10.52 12-15.32 9.4-10.97 19.85Z" class="cls-6"/><path d="M724 370.31c20.72-9.71 25.32-29.09 12.76-38.33s-31.39 3.53-31.39 3.53 20.63-8.9 30.48 4.23S724 370.31 724 370.31Z" class="cls-7"/><path d="M715.38 359.17c8.3-3.31 8.55-11.81 8.53-13.35a.93.93 0 0 0 0-.21 17.23 17.23 0 0 1-12.22 11.66c-9 2.27-15.22-.28-16.31-.78 1.36.76 11.5 6.07 20 2.68ZM705.47 334.39c.52-4.42 1.61-20.69-9.08-27.88-12.23-8.21-25.37 5.05-25.81 5.49s14.76-9.4 26 .54a25.91 25.91 0 0 1 8.89 21.85ZM654.55 384.61c3.56 6.23 30.21 36.67 52.62 23.79s.5-44.47.5-44.47 10.12 28.43-9.09 37.6-44.03-16.92-44.03-16.92Z" class="cls-7"/><path d="M617.66 393.28c.75 1.08 10 13.84 24.24 9.44 14.83-4.59 12.65-18.11 12.65-18.11s-8.43 12.66-20.44 13.48c-11.25.78-15.92-4.18-16.45-4.81Z" class="cls-7"/><path d="M589.52 412.78a12.37 12.37 0 0 0 6.1 1.46c-4.37-5.42-6.16-13.51-6.16-13.51s4.79 12.85 16.33 13.22 20.92-9.7 20.92-9.7c-5.77-3.68-8.88-10.52-9.1-11s.34 15.54-13 14.25-14.5-16.54-14.5-16.54-5.8 6.16-4.64 13.81a15.37 15.37 0 0 0 4.05 8.01Z" class="cls-7"/><path d="M689.78 573.65c39.37-17.42 88.85-40.76 114.84-53.12a9.84 9.84 0 0 0 4.87-12.66c-3-7.33-7.53-16.73-13.32-27.95a9.85 9.85 0 0 0-12.72-4.49 11.29 11.29 0 0 0-1.09.57c-21.46 12.89-52.33 28.35-89.29 44.71-18 8-33.69 14.49-43.69 18.56l-.27.12a9.84 9.84 0 0 0-5.11 12.73c4.49 10.93 8.47 19.77 11.84 26.28a9.84 9.84 0 0 0 12.58 4.53c6.3-2.67 13.49-5.79 21.36-9.28Z" class="cls-1"/><path d="M660 564.38a10.81 10.81 0 0 0 14.13 5.4l5.38-2.35c7.56-3.31 15.57-6.88 23.75-10.57l2.57-1.17 4.1-1.85 1.76-.8 4.42-2c1.1-.49 2.2-1 3.3-1.51l10.79-5 1.78-.82 7.37-3.41 5-2.31 20.06-9.36 4.68-2.21 1.53-.71 8.74-4.11 2.74-1.29 1.33-.63 1.31-.63c1.3-.61 2.56-1.21 3.78-1.77l2.37-1.14.19-.09.3-.15a10.83 10.83 0 0 0 4.81-13.84l-1.58-3.32c-.21-.43-.42-.86-.63-1.31-.43-.86-.85-1.75-1.29-2.64a10.82 10.82 0 0 0-15-4.61c-37.71 21.32-87.27 42.8-114.45 54.09a10.78 10.78 0 0 0-5.76 14.27v.11c.81 1.98 1.67 3.91 2.52 5.73Z" class="cls-4"/><path d="M660 564.38a10.81 10.81 0 0 0 14.13 5.4l5.38-2.35c7.56-3.31 15.57-6.88 23.75-10.57l2.57-1.17 4.1-1.85 1.76-.8 4.42-2c1.1-.49 2.2-1 3.3-1.51l10.79-5 1.78-.82 7.37-3.41 5-2.31 20.06-9.36 4.68-2.21 1.53-.71 8.74-4.11 2.74-1.29 1.33-.63 1.31-.63c1.3-.61 2.56-1.21 3.78-1.77.87-.43 1.73-.84 2.56-1.23l.3-.15a10.83 10.83 0 0 0 4.81-13.84l-1.58-3.32c-.21-.43-.42-.86-.63-1.31-16.91 8.24-107.75 52.26-136.51 61.22.82 1.98 1.68 3.91 2.53 5.73Z" class="cls-5"/><rect width="95.93" height="72.39" x="876.12" y="349.1" class="cls-1" rx="17.47" transform="rotate(66.13 924.081 385.296)"/><path d="m889.27 371.74 21.43 48.43a11.63 11.63 0 0 0 15.36 5.94l26.94-11.9a11.63 11.63 0 0 0 5.92-15.36l-21.43-48.44a11.64 11.64 0 0 0-15.35-5.94l-26.94 11.91a11.64 11.64 0 0 0-5.91 5.88c-.17.39-.33.81-.47 1.22a11.6 11.6 0 0 0 .45 8.26Z" class="cls-8"/><path d="m897.33 390 13.37 30.21a11.63 11.63 0 0 0 15.36 5.94L953 414.21a11.63 11.63 0 0 0 5.92-15.36L945.7 369c4.17 11.2 7.2 22.55 4.43 26.68-6.16 9.18-34.5 16.88-34.5 16.88l-26.34-50.34-7.29-13.89c2.11 4.32 4.5 9.5 6.82 15.15a156.91 156.91 0 0 1 8.51 26.52Z" class="cls-9"/><path d="M845.69 478.16c5.43-2.4 11.27-5.12 17.45-8 6.44-3 13.09-6.09 19.52-8.94 4-1.78 7.55-3.28 10.78-4.59 1.6-.65 3.09-1.28 4.5-1.9 11.33-5 18.75-10.1 22.67-15.55 4.84-6.73 3.24-12.34 2.48-14.18l-30-72.11a9.41 9.41 0 0 0-10.22-6c-1.24.07-14.54.34-34.72-13.53s-19.78-33.83-19.75-34.67a9.79 9.79 0 0 0-12.5-9.81 34.33 34.33 0 0 0-4.4 1.64c-15.5 6.86-24.19 19.09-23.25 32.71.87 12.59 9.92 28.47 16.13 38-4.3 1.57-8.68 3.37-12.52 5.07-7.49 3.31-18.23 8.57-26.85 14.79-4.11 2.95-16.59 11.95-14.71 24a24.06 24.06 0 0 0 13.12 18.4c-.06.37-.12.73-.17 1.1a21.3 21.3 0 0 0 5.72 17.8 20.48 20.48 0 0 0 9.53 5.61 22.85 22.85 0 0 0 5.2 10.91 25 25 0 0 0 12.65 8.62c.15.49.31 1 .49 1.46 3 8.09 10.78 15.14 19 17.16 5.68 1.44 12.95-.51 29.85-7.99Z" class="cls-1"/><path d="M776 435.54c6.34 6.57 15.34 1.49 16.31.93-.84.68-8.45 7.25-1.07 16.18 7.81 9.45 15.56 4.47 15.56 4.47a8.38 8.38 0 0 0-1.31 6.61c1.12 5.73 7 11.49 12.63 12.89 7.85 1.94 44-17.92 71.59-29.1S914 428.78 914 428.78l-17.27-41.49-12.73-30.6s-16.31 2.05-41.43-15.22c-24.76-17-24-42.38-24-43.1-3.19.9-21.59 8.35-20.49 24.2s19.82 40.94 19.82 40.94a36 36 0 0 1 10.9.5 33.91 33.91 0 0 1 14.34 6.39 42.84 42.84 0 0 0-21.84-3.76c-11.78 1.34-63.48 22.8-61.27 36.92s17.3 13.25 17.3 13.25c-2.25 1.35-8 11.76-1.33 18.73Z" class="cls-8"/><path d="M817.87 363.5a36 36 0 0 1 10.9.5A115.13 115.13 0 0 1 812 332a34.49 34.49 0 0 1 6.49-33.63c-3.19.9-21.59 8.35-20.49 24.2s19.87 40.93 19.87 40.93ZM818.16 476.62c7.85 1.94 44-17.92 71.59-29.1S914 428.78 914 428.78l-17.27-41.49c3.56 15 3.66 29.24-5.21 36.51-20.74 17-73.88 35.79-86 39.93 1.13 5.73 7.03 11.49 12.64 12.89Z" class="cls-9"/></svg>