<svg data-v-fde0c5aa="" xmlns="http://www.w3.org/2000/svg" viewBox="0 0 300 300" class="iconAbove"><!----><defs data-v-fde0c5aa=""><!----></defs><rect data-v-fde0c5aa="" fill="#141414" x="0" y="0" width="300px" height="300px" class="logo-background-square"/><defs data-v-fde0c5aa=""><!----></defs><g data-v-fde0c5aa="" id="72d1f79d-a387-46f5-aac1-33effa5071d6" fill="#e7960a" transform="matrix(3.547550678253174,0,0,3.547550678253174,19.290489833193007,178.28093797550338)"><path d="M11.37 0.43L11.37 0.67C13.75 0.67 12.42 3.95 12.42 3.95L11.09 7.46L9.10 2.30C9.10 2.30 8.47 0.67 9.73 0.67L9.73 0.43L5.26 0.43L5.26 0.67C5.63 0.67 6.12 0.67 6.55 1.81L7.35 3.89L6.05 7.41L4.03 2.30C4.03 2.30 3.43 0.67 4.66 0.67L4.66 0.43L0.20 0.43L0.20 0.67C0.56 0.67 1.04 0.67 1.48 1.81L5.00 10.29L5.24 10.29L7.48 4.24L9.98 10.29L10.22 10.29L12.64 4.02C13.93 1.01 14.85 0.67 15.50 0.67L15.50 0.43ZM18.33 3.70C16.20 3.70 14.99 5.21 14.99 7.06C14.99 8.89 16.20 10.42 18.33 10.42C20.47 10.42 21.66 8.89 21.66 7.06C21.66 5.21 20.47 3.70 18.33 3.70ZM18.33 10.18C17.32 10.18 17.05 9.59 17.05 7.06C17.05 4.52 17.32 3.93 18.33 3.93C19.33 3.93 19.59 4.52 19.59 7.06C19.59 9.59 19.33 10.18 18.33 10.18ZM33.57 0.43L33.57 0.67C35.95 0.67 34.62 3.95 34.62 3.95L33.29 7.46L31.30 2.30C31.30 2.30 30.67 0.67 31.93 0.67L31.93 0.43L27.47 0.43L27.47 0.67C27.83 0.67 28.32 0.67 28.76 1.81L29.55 3.89L28.25 7.41L26.24 2.30C26.24 2.30 25.63 0.67 26.87 0.67L26.87 0.43L22.40 0.43L22.40 0.67C22.76 0.67 23.24 0.67 23.69 1.81L27.20 10.29L27.44 10.29L29.68 4.24L32.19 10.29L32.42 10.29L34.85 4.02C36.13 1.01 37.06 0.67 37.70 0.67L37.70 0.43ZM40.82 8.85C40.70 9.18 40.38 9.56 39.90 9.56C38.99 9.56 38.99 8.64 38.99 8.64C38.99 7.92 39.45 7.27 40.82 6.96C40.82 6.96 40.82 8.82 40.82 8.85ZM43.26 9.56C42.57 9.56 42.59 8.58 42.59 8.58L42.59 6.50C42.59 4.84 42.08 3.70 40.25 3.70C40.25 3.70 39.52 3.64 38.89 3.98C38.12 4.38 37.94 4.76 37.80 5.00C37.66 5.24 37.67 5.57 37.84 5.84C38.09 6.20 38.58 6.29 38.95 6.05C39.31 5.80 39.41 5.31 39.16 4.94C39.03 4.76 38.85 4.66 38.64 4.63C38.54 4.62 38.60 4.38 39.05 4.16C40.01 3.65 40.82 4.38 40.82 5.84L40.82 6.71C38.37 7.32 37.20 7.46 37.20 8.99C37.20 10.42 38.81 10.42 38.81 10.42C39.80 10.42 40.63 9.90 40.84 9.28C40.99 10.42 42.24 10.42 42.24 10.42C43.12 10.42 43.76 9.87 43.88 9.42L43.64 9.32C43.55 9.56 43.26 9.56 43.26 9.56ZM50.75 8.57L50.75 5.87C50.75 4.19 50.11 3.70 48.99 3.70C48.12 3.70 46.94 4.47 46.68 5.21L46.68-0.15L44.23 0.43L44.23 0.67C44.79 0.88 44.93 1.02 44.93 1.51L44.93 8.57C44.93 9.28 44.90 9.88 44.37 10.04L44.37 10.29L47.25 10.29L47.25 10.04C46.75 9.91 46.68 9.34 46.68 8.57L46.68 5.59C46.97 5.03 47.45 4.75 47.84 4.75C48.65 4.75 49.01 5.12 49.01 5.92L49.01 8.57C49.01 9.28 48.99 9.90 48.45 10.05L48.45 10.29L51.32 10.29L51.32 10.05C50.83 9.93 50.75 9.34 50.75 8.57ZM55.45 3.70C53.33 3.70 52.12 5.21 52.12 7.06C52.12 8.89 53.33 10.42 55.45 10.42C57.60 10.42 58.79 8.89 58.79 7.06C58.79 5.21 57.60 3.70 55.45 3.70ZM55.45 10.18C54.45 10.18 54.18 9.59 54.18 7.06C54.18 4.52 54.45 3.93 55.45 3.93C56.46 3.93 56.71 4.52 56.71 7.06C56.71 9.59 56.46 10.18 55.45 10.18ZM62.10 8.60L62.10-0.15L59.65 0.36L59.65 0.60C60.21 0.81 60.35 1.02 60.35 1.51L60.35 8.60C60.35 9.31 60.33 9.90 59.79 10.05L59.79 10.29L62.66 10.29L62.66 10.05C62.17 9.93 62.10 9.37 62.10 8.60ZM65.84 1.62C65.84 1.09 65.41 0.67 64.88 0.67C64.34 0.67 63.92 1.09 63.92 1.62C63.92 2.16 64.34 2.58 64.88 2.58C65.41 2.58 65.84 2.16 65.84 1.62ZM65.88 8.58L65.88 3.70L63.43 4.26L63.43 4.49C64.01 4.80 64.15 5.00 64.15 5.47L64.15 8.58C64.15 9.30 64.12 9.88 63.59 10.05L63.59 10.29L66.46 10.29L66.46 10.05C65.95 9.91 65.88 9.37 65.88 8.58ZM73.29 8.48C72.97 8.95 71.86 9.32 71.16 9.17C70.20 8.96 69.38 8.29 69.38 6.78C69.38 4.37 70.74 3.93 71.25 3.93C71.81 3.93 72.11 4.17 71.99 4.23C71.78 4.34 71.61 4.52 71.55 4.79C71.41 5.28 71.71 5.80 72.21 5.92C72.72 6.06 73.22 5.74 73.36 5.25C73.46 4.91 73.32 4.52 73.08 4.31C72.84 4.10 72.24 3.70 71.25 3.70C68.85 3.70 67.62 5.42 67.62 7.03C67.62 8.67 68.87 10.42 70.70 10.42C72.45 10.42 73.29 9.32 73.49 8.61Z"/></g><defs data-v-fde0c5aa=""><!----></defs><g data-v-fde0c5aa="" id="a1771fe9-a1e0-40e5-9f72-467cf66d0545" stroke="none" fill="#e7960a" transform="matrix(0.08231282979249954,0,0,0.08231282979249954,108.84358684794663,78.49780899842932)"><path d="M749.7 201.5s-30.7 51.1-44.3 56.2l-13.6 5.1s2.8-68.1-26.1-120.9C636.7 89.1 589.2 76 500 76s-136.7 13.1-165.7 65.9c-29 52.8-26.1 120.9-26.1 120.9l-13.6-5.1c-13.6-5.1-44.3-56.2-44.3-56.2s3.4 64.7 10.2 86.9c6.8 22.1 40.9 56.2 39.2 95.4-1.7 39.2-10.2 49.4-10.2 49.4-.9 111.2 62.5 157.8 120 177.2l12.5-52.3s22.6-6 33.3-14.9c10.7-8.9 10.2-45.3 10.2-45.3s21.4-6 30.3-6.6c8.9-.6 38.5 7.8 38.5 7.8s-2.1 33.4 4.4 38.8c6.6 5.4 24.5 16.1 32.2 17.9 6.9 1.6 21.5 44.1 24.5 52.9 56.1-20.4 116-67.4 115.1-175.5 0 0-8.5-10.2-10.2-49.4-1.7-39.2 32.4-73.2 39.2-95.4 6.8-22.2 10.2-86.9 10.2-86.9zM353.4 459.7s-18.5-32.4-12.7-71.8c5.8-39.4 12.7-49.8 12.7-49.8s33.6 85.7 41.7 97.3-18.6 31.3-41.7 24.3zm39.3-127.8c-17.4-1.2-12.7-33.6-20.8-42.2S340.6 274 340.6 274s20.8 0 35.9 8.1c15.1 8.1 61.4 24.3 67.2 23.2 5.8-1.2 12.7-5.8 12.7-5.8-10.4 55.6-46.3 33.6-63.7 32.4zm99.6 74.1h-26.6s-8.1-6.9 0-11.6c8.1-4.6 13.9-.9 17.4-10.3 3.5-9.4 9.3-17.5 9.3-17.5V406zm38.1 0h-26.6v-39.4s5.8 8.1 9.3 17.5c3.5 9.4 9.3 5.6 17.4 10.3 8 4.7-.1 11.6-.1 11.6zm8.7-106.5s6.9 4.6 12.7 5.8c5.8 1.2 52.1-15.1 67.2-23.2 15.1-8.1 35.9-8.1 35.9-8.1s-23.2 7-31.3 15.7-3.5 41.1-20.8 42.2c-17.4 1.2-53.3 23.2-63.7-32.4zm106.5 160.2c-23.2 6.9-49.8-12.7-41.7-24.3s41.7-97.3 41.7-97.3 6.9 10.4 12.7 49.8c5.8 39.4-12.7 71.8-12.7 71.8zM478.3 746.5c8.1 2.7 24.4 6.3 38.6 10.2 4.2-6.1 6.8-14.4 6.8-23.6 0-5.2-.8-10.1-2.3-14.5-15.2 7.7-35.5 17.9-44.4 22.7.3 1.8.8 3.5 1.3 5.2zM519 761c-11-5.3-26.3-7.6-38.7-9.2.9 1.9 1.9 3.6 3 5.2-4.3 6.1-7 14.6-7 24 0 2.6.2 5 .6 7.4 16-6.7 38-12.3 45.6-18-.8-3.3-2-6.5-3.5-9.4zM533.5 827l10.9-3s-9.9-18-16-22c-1.6-1-4.6-2.4-8.2-3.6 2.1-5.1 3.4-11 3.4-17.3 0-1.4-.1-2.7-.2-4-15.8 4.7-30.9 12.7-43.9 21.1 1.8 4.3 4.2 8.1 7.1 10.9-4.7 4.3-10.7 9.9-16 15-10.3 10-19.6 23-19.6 23s11.3-6 15.3 0-14.1 23-15.6 36 5.7 31 5.7 31l9.9-12s2 19 13 29 12.6 12 18.8 29c6.2 17 4.2 27 4.2 27s31.1-35 31.1-45c-.1-10 0-41 0-41s8.3 1.7 10.5 7.3c-.6-4.7-1.3-13.4.5-19.3 3-10 12-7 12-7s3-16-6-31-16.9-24.1-16.9-24.1z"/><path d="M586.4 624c-1.5-14.6-15-54.4-15-54.4s-18-3-33.5-16.5-15.1-53.1-15.1-53.1h-45.6s.4 39.6-15.1 53.1-33.5 16.5-33.5 16.5-13.5 39.8-15 54.4 13.5 43.1 13.5 43.1l7.5-18s7.7 27 21.9 40.5c7.8 7.5 17.8 14.5 25.2 22.1-3.1 5.4-5 12.2-5.3 19.6 3.8-2.4 7.9-4.9 11.9-7.3 8.2-5.1 23.6-12.2 35.6-17.5 6.4-5.7 13.7-11.2 19.8-16.9 14.1-13.5 21.9-40.5 21.9-40.5l7.5 18c-.2 0 14.8-28.5 13.3-43.1z"/></g><!----></svg>